<svg xmlns="http://www.w3.org/2000/svg" width="24" height="24" viewBox="0 0 24 24" fill="none"><path fill="#000" d="M19.385 17.027a9.74 9.74 0 0 1-.985 1.74c-.517.726-.941 1.228-1.268 1.507-.507.458-1.05.692-1.63.706-.418 0-.92-.117-1.507-.354-.587-.235-1.127-.352-1.62-.352-.519 0-1.074.117-1.668.352-.595.237-1.074.36-1.44.372-.558.024-1.113-.217-1.668-.724-.354-.303-.796-.823-1.327-1.56-.569-.787-1.036-1.699-1.403-2.739-.392-1.123-.589-2.21-.589-3.264 0-1.206.265-2.247.797-3.118.417-.7.973-1.253 1.668-1.659A4.547 4.547 0 0 1 9 7.31c.443 0 1.023.134 1.745.399.719.265 1.18.4 1.383.4.152 0 .665-.158 1.534-.471.823-.291 1.517-.412 2.086-.364 1.541.122 2.699.72 3.469 1.795-1.378.82-2.06 1.97-2.047 3.444.013 1.149.437 2.104 1.27 2.863.378.352.8.625 1.269.818-.102.29-.21.568-.324.834ZM15.851 3.36c0 .9-.335 1.74-1.002 2.519-.805.925-1.779 1.46-2.835 1.375a2.765 2.765 0 0 1-.02-.341c0-.865.382-1.79 1.062-2.546.34-.382.771-.7 1.295-.955.522-.25 1.016-.388 1.48-.412.014.12.02.24.02.36Z"/></svg>
