<svg xmlns="http://www.w3.org/2000/svg" width="20" height="20" viewBox="0 0 20 20" fill="none"><path fill="#000" d="M16.158 14.19a8.12 8.12 0 0 1-.821 1.45c-.431.604-.785 1.023-1.057 1.255-.422.381-.874.577-1.359.588-.347 0-.767-.097-1.255-.294-.49-.197-.94-.294-1.35-.294-.432 0-.895.097-1.39.294-.496.197-.895.3-1.2.31-.465.02-.928-.182-1.39-.604-.295-.253-.664-.686-1.106-1.3a8.933 8.933 0 0 1-1.169-2.282c-.327-.936-.491-1.843-.491-2.72 0-1.006.221-1.873.664-2.6a3.86 3.86 0 0 1 1.39-1.381 3.79 3.79 0 0 1 1.88-.521c.368 0 .852.112 1.453.332.6.221.984.333 1.153.333.126 0 .554-.13 1.279-.392.685-.242 1.264-.343 1.738-.303 1.284.102 2.249.6 2.89 1.495-1.148.684-1.716 1.642-1.705 2.87.01.958.364 1.754 1.058 2.387.315.293.666.52 1.057.681a11.16 11.16 0 0 1-.27.696ZM13.212 2.8c0 .75-.278 1.45-.834 2.099-.671.77-1.483 1.216-2.363 1.146a2.298 2.298 0 0 1-.017-.284c0-.72.319-1.491.885-2.122.283-.319.643-.584 1.08-.795.434-.209.846-.324 1.233-.344.012.1.016.2.016.3Z"/></svg>
