<svg xmlns="http://www.w3.org/2000/svg" width="16" height="16" viewBox="0 0 16 16" fill="none"><path fill="#000" d="M12.92 11.352c-.184.419-.403.805-.656 1.16-.346.483-.628.818-.846 1.004-.338.305-.7.461-1.087.47-.278 0-.614-.077-1.004-.235-.392-.157-.752-.235-1.08-.235-.346 0-.716.078-1.112.235-.397.158-.716.24-.96.248-.372.015-.743-.145-1.112-.483-.236-.202-.531-.549-.885-1.04a7.147 7.147 0 0 1-.935-1.826 6.582 6.582 0 0 1-.393-2.176c0-.804.177-1.498.531-2.079a3.088 3.088 0 0 1 2.616-1.522c.295 0 .682.09 1.163.266.48.176.787.266.922.266.101 0 .443-.105 1.023-.314.548-.194 1.011-.274 1.39-.242 1.028.081 1.8.479 2.313 1.196-.919.547-1.373 1.313-1.364 2.296.008.766.29 1.403.846 1.91.252.234.533.415.846.544-.068.194-.14.379-.216.557ZM10.564 2.24c0 .6-.223 1.16-.668 1.68-.537.616-1.186.972-1.89.916a1.836 1.836 0 0 1-.014-.228c0-.576.255-1.192.709-1.696.226-.256.514-.468.863-.637.348-.167.677-.26.987-.275.01.08.013.16.013.24Z"/></svg>
