<svg xmlns="http://www.w3.org/2000/svg" width="16" height="16" viewBox="0 0 16 16" fill="none"><path fill="currentColor" fill-rule="evenodd" d="M11.075 6.779c.107.106.32.106.428 0l2.563-2.457.534.534-2.457 2.777c-.64.64-1.922.961-2.883.427-.166.232-.37.51-.599.817l.331.253c1.451 1.111 2.982 2.284 3.259 2.56.854.855.427 1.923.32 2.03-.107.107-1.175.534-2.03-.32-.282-.283-1.545-1.92-2.708-3.429-1.147 1.5-2.45 3.141-2.738 3.429-.854.854-1.922.427-2.03.32-.106-.107-.533-1.175.321-2.029.362-.362 2.048-1.705 3.563-2.865-.255-.33-.487-.629-.679-.873-.854.427-1.922.107-2.563-.534-.64-.64-2.67-3.097-1.602-4.165l.32-.32c.962-.962 3.418 1.174 4.059 1.815.64.64.96 1.922.427 2.777.244.192.54.42.865.672.402-.302.766-.57 1.057-.779-.32-.747 0-1.922.534-2.563L12.25 2.4l.534.534-2.563 2.563c-.213.107-.213.32-.107.32.107.107.32.107.428 0l2.67-2.456.533.534-2.563 2.563c-.213.107-.213.32-.107.32Z" clip-rule="evenodd"/></svg>
