<svg xmlns="http://www.w3.org/2000/svg" width="20" height="20" viewBox="0 0 20 20" fill="none"><path fill="currentColor" fill-rule="evenodd" d="M13.894 8.473c.134.134.4.134.534 0l3.204-3.07.668.667-3.07 3.471c-.802.801-2.404 1.202-3.605.534-.207.29-.463.638-.748 1.021l.413.317c1.814 1.389 3.727 2.855 4.073 3.2 1.068 1.069.534 2.403.4 2.537-.133.133-1.468.667-2.536-.4-.353-.354-1.932-2.4-3.386-4.286-1.434 1.874-3.063 3.926-3.422 4.286-1.068 1.068-2.403.534-2.537.4-.133-.133-.667-1.468.4-2.536.453-.452 2.561-2.131 4.454-3.582-.319-.412-.609-.785-.848-1.09-1.068.533-2.403.133-3.204-.668-.801-.801-3.338-3.872-2.003-5.206l.4-.4c1.202-1.202 4.273 1.467 5.074 2.268.8.801 1.201 2.403.534 3.471.305.24.675.527 1.082.84a70.46 70.46 0 0 1 1.32-.973c-.4-.934 0-2.403.668-3.204L15.363 3l.667.667-3.204 3.204c-.267.134-.267.4-.133.4.133.134.4.134.534 0l3.337-3.07.668.668-3.204 3.204c-.267.133-.267.4-.134.4Z" clip-rule="evenodd"/></svg>
