<svg xmlns="http://www.w3.org/2000/svg" width="24" height="24" viewBox="0 0 24 24" fill="none"><path fill="currentColor" d="M16.613 10.168c.16.16.48.16.641 0L21.1 6.484l.8.8-3.684 4.166c-.96.96-2.883 1.441-4.325.64a75.06 75.06 0 0 1-.898 1.226l.496.38c2.177 1.667 4.473 3.425 4.888 3.84 1.281 1.282.64 2.884.48 3.044-.16.16-1.762.801-3.043-.48-.424-.424-2.319-2.88-4.063-5.143-1.721 2.249-3.676 4.712-4.107 5.143-1.282 1.281-2.884.64-3.044.48-.16-.16-.801-1.762.48-3.043.543-.543 3.073-2.557 5.345-4.298-.383-.495-.731-.943-1.019-1.31-1.281.641-2.883.16-3.845-.8-.96-.961-4.004-4.646-2.402-6.248l.48-.48C5.08 2.959 8.764 6.163 9.725 7.124c.962.961 1.442 2.883.641 4.165.367.288.81.632 1.299 1.008a84.246 84.246 0 0 1 1.584-1.168c-.48-1.121 0-2.883.801-3.844L18.375 3.6l.801.801-3.844 3.845c-.32.16-.32.48-.16.48.16.16.48.16.64 0l4.005-3.684.801.8-3.845 3.845c-.32.16-.32.481-.16.481Z"/></svg>
