<svg width="20" height="20" viewBox="0 0 20 20" fill="none" xmlns="http://www.w3.org/2000/svg"><path d="M10 17.5C14.1421 17.5 17.5 14.1421 17.5 10C17.5 5.85786 14.1421 2.5 10 2.5C5.85786 2.5 2.5 5.85786 2.5 10C2.5 14.1421 5.85786 17.5 10 17.5Z" fill="#1977F3"/> <path d="M12.9194 12.1692L13.2516 10.0007H11.1717V8.59376C11.1717 8.00102 11.4618 7.422 12.3941 7.422H13.3402V5.57629C13.3402 5.57629 12.4817 5.42969 11.6611 5.42969C9.94826 5.42969 8.82817 6.4675 8.82817 8.34802V10.0007H6.92337V12.1692H8.82817V17.4099C9.20997 17.47 9.60126 17.5006 9.99994 17.5006C10.3986 17.5006 10.7899 17.469 11.1717 17.4099V12.1692H12.9194Z" fill="white"/></svg>
