<svg xmlns="http://www.w3.org/2000/svg" width="20" height="20" viewBox="0 0 20 20" fill="none"><path fill="#4285F4" fill-rule="evenodd" d="M17.2 10.17c0-.531-.048-1.043-.136-1.534H10v2.902h4.036A3.45 3.45 0 0 1 12.54 13.8v1.882h2.424c1.418-1.306 2.236-3.228 2.236-5.512Z" clip-rule="evenodd"/><path fill="#34A853" fill-rule="evenodd" d="M10 17.5c2.025 0 3.723-.672 4.963-1.817L12.54 13.8c-.672.45-1.531.716-2.54.716-1.954 0-3.607-1.32-4.197-3.092H3.298v1.943A7.497 7.497 0 0 0 10 17.5Z" clip-rule="evenodd"/><path fill="#FBBC05" fill-rule="evenodd" d="M5.803 11.425c-.15-.45-.235-.93-.235-1.425 0-.494.085-.975.235-1.425V6.632H3.298A7.497 7.497 0 0 0 2.5 10c0 1.21.29 2.356.798 3.368l2.505-1.943Z" clip-rule="evenodd"/><path fill="#EA4335" fill-rule="evenodd" d="M10 5.483c1.1 0 2.09.378 2.867 1.122l2.151-2.152C13.719 3.243 12.021 2.5 10 2.5a7.497 7.497 0 0 0-6.702 4.132l2.505 1.943C6.393 6.802 8.046 5.483 10 5.483Z" clip-rule="evenodd"/></svg>
