<svg xmlns="http://www.w3.org/2000/svg" width="16" height="16" viewBox="0 0 16 16" fill="none"><path fill="#4285F4" fill-rule="evenodd" d="M13.76 8.136c0-.425-.038-.834-.11-1.227H8V9.23h3.23a2.76 2.76 0 0 1-1.198 1.811v1.505h1.939c1.134-1.044 1.789-2.582 1.789-4.41Z" clip-rule="evenodd"/><path fill="#34A853" fill-rule="evenodd" d="M8 14c1.62 0 2.978-.537 3.97-1.454l-1.938-1.505c-.538.36-1.225.573-2.032.573-1.563 0-2.886-1.056-3.357-2.474H2.638v1.555A5.998 5.998 0 0 0 8 14Z" clip-rule="evenodd"/><path fill="#FBBC05" fill-rule="evenodd" d="M4.643 9.14A3.607 3.607 0 0 1 4.455 8c0-.396.068-.78.188-1.14V5.305H2.638a5.998 5.998 0 0 0 0 5.39L4.643 9.14Z" clip-rule="evenodd"/><path fill="#EA4335" fill-rule="evenodd" d="M8 4.386c.88 0 1.672.303 2.293.898l1.721-1.721C10.975 2.595 9.617 2 8 2a5.998 5.998 0 0 0-5.362 3.305L4.643 6.86C5.114 5.442 6.437 4.386 8 4.386Z" clip-rule="evenodd"/></svg>
