<svg xmlns="http://www.w3.org/2000/svg" width="24" height="24" viewBox="0 0 24 24" fill="none"><path fill="currentColor" fill-rule="evenodd" d="M12 21.5a9.5 9.5 0 1 0 0-19 9.5 9.5 0 0 0 0 19Zm1.005-5.39v1.828h-1.827V16.11h1.827ZM8.437 9.717a3.653 3.653 0 0 1 3.654-3.653 3.653 3.653 0 0 1 3.654 3.653c0 1.172-.721 1.803-1.424 2.417-.667.583-1.316 1.15-1.316 2.15h-1.827c0-1.663.86-2.323 1.617-2.903.594-.455 1.123-.86 1.123-1.664a1.832 1.832 0 0 0-1.827-1.827 1.832 1.832 0 0 0-1.827 1.827H8.438Z" clip-rule="evenodd"/></svg>
