<svg xmlns="http://www.w3.org/2000/svg" width="24" height="24" viewBox="0 0 24 24" fill="none"><path fill="currentColor" d="M9.531 7.166h8.503V8.4H9.531V7.166ZM17.897 9.497H9.531v1.235h8.366V9.497ZM9.531 11.966h8.366V13.2H9.531v-1.234Z"/><path fill="currentColor" fill-rule="evenodd" d="M7.2 3.6h13.166c.685 0 1.234.549 1.234 1.097V18.96a1.23 1.23 0 0 1-1.234 1.234H4.869c-1.372 0-2.469-.96-2.469-2.057V8.95a1.23 1.23 0 0 1 1.234-1.235h2.332V4.697c0-.548.548-1.097 1.234-1.097Zm0 15.497h13.166v-14.4H7.2v14.4Z" clip-rule="evenodd"/></svg>
