<svg xmlns="http://www.w3.org/2000/svg" width="24" height="24" viewBox="0 0 24 24" fill="none"><path fill="currentColor" fill-rule="evenodd" d="M20.785 18.748v1.216h-2.056L12.528 3.752H6.586V2.536h6.789l6.2 16.212h1.21ZM4.27 19.964 9.697 5.778h.874L7.258 14.44h8.484l-3.778-9.878H6.586v1.216h1.8l-4.96 12.97h-1.21v1.216H4.27Zm9.694-6.74h-4.93L11.5 6.78l2.465 6.444Zm2.087 2.027 1.803 4.713h-3.188v-1.216h1.41l-.872-2.281h-7.41l-.873 2.28h1.411v1.217H5.145l1.803-4.713h9.104Zm-7.719 5.445H2.215v1.216h6.118v-1.216Zm12.452 0h-6.118v1.216h6.118v-1.216Z" clip-rule="evenodd"/></svg>
