<svg xmlns="http://www.w3.org/2000/svg" width="16" height="16" viewBox="0 0 16 16" fill="none"><path fill="currentColor" fill-rule="evenodd" d="M14.13 12.511v.808h-1.358L8.68 2.549H4.756v-.807h4.482l4.093 10.77h.798Zm-10.902.808L6.81 3.895h.577L5.2 9.65h5.6L8.306 3.088h-3.55v.807h1.188l-3.275 8.616h-.798v.808h1.357Zm3.145-4.477L8 4.562l1.627 4.28H6.373Zm4.632 1.346 1.19 3.13h-2.104v-.807h.931l-.576-1.515H5.554l-.576 1.515h.931v.808H3.805l1.19-3.131h6.01Zm-5.096 3.618H1.871v.807h4.038v-.807Zm8.22 0H10.09v.807h4.04v-.807Z" clip-rule="evenodd"/></svg>
