<svg xmlns="http://www.w3.org/2000/svg" width="20" height="20" viewBox="0 0 20 20" fill="none"><path fill="currentColor" fill-rule="evenodd" d="M17.698 15.631v1.015h-1.704L10.852 3.12H5.926V2.105h5.628l5.142 13.526h1.002ZM4.006 16.646 8.505 4.81h.725l-2.747 7.227h7.034l-3.132-8.241h-4.46V4.81h1.492L3.305 15.631H2.302v1.015h1.704Zm8.038-5.623H7.956L10 5.646l2.044 5.377Zm1.73 1.69 1.495 3.933h-2.643V15.63h1.17l-.724-1.903H6.928l-.724 1.903h1.17v1.015H4.731l1.495-3.933h7.548Zm-6.4 4.544H2.302v1.015h5.072v-1.015Zm10.324 0h-5.072v1.015h5.072v-1.015Z" clip-rule="evenodd"/></svg>
