<svg xmlns="http://www.w3.org/2000/svg" width="16" height="16" viewBox="0 0 16 16" fill="none"><path fill="#121212" d="M12.553 9.42c-.388 1.025-1.103 1.817-2.127 2.236V9.42l1.226-1.102-1.226-1.087V5.694c1.117-.077 1.893-.9 1.893-1.909C12.32 2.465 11.063 2 10.348 2c-.155 0-.327 0-.575.062v.063c.093 0 .233-.016.28-.016.496 0 .868.233.868.683 0 .341-.28.683-.776.683-1.226 0-2.67-.994-4.238-.994-1.397 0-2.36 1.04-2.36 2.096 0 1.04.606 1.381 1.243 1.615l.015-.063c-.2-.124-.34-.34-.34-.683 0-.465.435-.853.978-.853 1.319 0 3.446 1.102 4.766 1.102h.124v1.553l-1.226 1.07 1.226 1.103v2.266a4.591 4.591 0 0 1-1.584.264c-2.049 0-3.353-1.242-3.353-3.307A5 5 0 0 1 5.598 7.2l1.024-.45v4.564l2.081-.915V5.726L5.645 7.092c.31-.9.947-1.553 1.707-1.925l-.016-.047C5.287 5.57 3.3 7.122 3.3 9.451 3.3 12.137 5.567 14 8.206 14c2.794 0 4.378-1.863 4.393-4.58h-.046Z"/></svg>
