<svg xmlns="http://www.w3.org/2000/svg" width="20" height="20" viewBox="0 0 20 20" fill="none"><path fill="#121212" d="M15.756 11.776c-.485 1.28-1.378 2.27-2.659 2.794v-2.794l1.533-1.378-1.533-1.359V7.12c1.397-.098 2.367-1.127 2.367-2.388 0-1.649-1.57-2.231-2.464-2.231-.194 0-.408 0-.718.078v.078c.116 0 .29-.02.348-.02.62 0 1.087.292 1.087.854 0 .427-.35.854-.97.854-1.533 0-3.338-1.242-5.298-1.242-1.747 0-2.95 1.3-2.95 2.62 0 1.3.757 1.726 1.553 2.018l.02-.078c-.252-.156-.426-.427-.426-.854 0-.582.544-1.067 1.222-1.067 1.65 0 4.308 1.378 5.958 1.378h.155v1.94l-1.533 1.339 1.533 1.378v2.833c-.64.232-1.3.33-1.98.33-2.56 0-4.19-1.553-4.19-4.134 0-.62.077-1.222.252-1.804l1.28-.563v5.705l2.6-1.145v-5.84L7.122 8.864a4.178 4.178 0 0 1 2.134-2.407l-.02-.058c-2.56.563-5.045 2.503-5.045 5.414 0 3.357 2.834 5.686 6.132 5.686 3.493 0 5.472-2.329 5.492-5.724h-.058Z"/></svg>
