<svg xmlns="http://www.w3.org/2000/svg" width="24" height="24" viewBox="0 0 24 24" fill="none"><path fill="#121212" d="M18.9 14.13c-.582 1.537-1.655 2.725-3.191 3.354v-3.353l1.839-1.654-1.84-1.63V8.542c1.677-.117 2.841-1.351 2.841-2.864C18.55 3.698 16.664 3 15.592 3c-.233 0-.49 0-.862.093v.094c.14 0 .349-.024.418-.024.745 0 1.304.35 1.304 1.025 0 .512-.42 1.025-1.164 1.025-1.84 0-4.005-1.49-6.358-1.49-2.095 0-3.539 1.56-3.539 3.143 0 1.56.908 2.072 1.863 2.422l.024-.094c-.302-.187-.51-.512-.51-1.025 0-.698.652-1.28 1.466-1.28 1.979 0 5.17 1.654 7.15 1.654h.185v2.329l-1.84 1.605 1.84 1.654v3.4a6.886 6.886 0 0 1-2.375.396c-3.073 0-5.03-1.863-5.03-4.96 0-.745.094-1.468.303-2.166l1.537-.675v6.845l3.12-1.373V8.589l-4.587 2.049a5.013 5.013 0 0 1 2.561-2.888l-.023-.07C8 8.355 5.02 10.684 5.02 14.177 5.021 18.206 8.42 21 12.379 21c4.191 0 6.566-2.794 6.59-6.87h-.07Z"/></svg>
