<svg xmlns="http://www.w3.org/2000/svg" width="20" height="20" viewBox="0 0 20 20" fill="none"><path fill="currentColor" fill-rule="evenodd" d="M6.889 3.69a.681.681 0 0 0-.655.868l.755 3.662h1.25a.75.75 0 0 1 .75.75c0 .556.454 1.01 1.01 1.01s1.01-.454 1.01-1.01a.75.75 0 0 1 .75-.75h1.24l.755-3.662a.68.68 0 0 0-.655-.868h-6.21Zm5.899 6.03h-.393a2.52 2.52 0 0 1-1.646 1.646v1.024h1.642l.397-2.67Zm-.62 4.17H10.75v2.42h1.06l.36-2.42Zm1.158 2.42.36-2.42h.987l-.63 2.378v.005a.072.072 0 0 1-.02.037h-.697Zm1.743-3.92h-1.161l.396-2.67h1.471l-.706 2.67Zm-5.82 3.92v-2.42h-1.42l.36 2.42h1.06Zm-2.577 0-.36-2.42h-.987l.63 2.383a.072.072 0 0 0 .02.037h.697ZM4.93 12.39H6.09l-.396-2.67H4.223l.706 2.67ZM7.21 9.72l.397 2.67h1.642v-1.024A2.521 2.521 0 0 1 7.603 9.72H7.21Zm-1.752-1.5-.691-3.347A2.181 2.181 0 0 1 6.889 2.19h6.21a2.18 2.18 0 0 1 2.122 2.683l-.69 3.347h3.192l-2.228 8.43c-.168.648-.743 1.16-1.466 1.16h-8.06c-.723 0-1.298-.512-1.466-1.16L2.275 8.22h3.183Z" clip-rule="evenodd"/></svg>
