<svg xmlns="http://www.w3.org/2000/svg" width="16" height="16" viewBox="0 0 16 16" fill="none"><path fill="currentColor" fill-rule="evenodd" d="M5.511 2.95a.545.545 0 0 0-.524.695l.604 2.929h1a.6.6 0 0 1 .6.6.81.81 0 0 0 .808.808.81.81 0 0 0 .808-.808.6.6 0 0 1 .6-.6h.992l.605-2.93a.544.544 0 0 0-.524-.695H5.51Zm4.72 4.824h-.315a2.017 2.017 0 0 1-1.317 1.317v.819h1.314l.317-2.136Zm-.496 3.336H8.599v1.936h.849l.287-1.936Zm.926 1.936.287-1.936h.79l-.503 1.903v.004a.057.057 0 0 1-.017.029h-.557Zm1.394-3.136h-.929l.317-2.136h1.177l-.565 2.136ZM7.4 13.046V11.11H6.263l.288 1.936h.848Zm-2.061 0L5.05 11.11h-.79l.504 1.907a.058.058 0 0 0 .016.029h.558ZM3.943 9.91h.93l-.318-2.136H3.378l.565 2.136Zm1.825-2.136.317 2.136H7.4v-.82a2.017 2.017 0 0 1-1.316-1.316h-.315Zm-1.402-1.2-.553-2.678A1.745 1.745 0 0 1 5.511 1.75h4.968a1.744 1.744 0 0 1 1.698 2.147l-.553 2.677h2.554l-1.782 6.744c-.135.518-.594.928-1.173.928H4.775c-.578 0-1.038-.41-1.172-.928L1.82 6.574h2.546Z" clip-rule="evenodd"/></svg>
