<svg xmlns="http://www.w3.org/2000/svg" width="24" height="24" viewBox="0 0 24 24" fill="none"><path fill="currentColor" fill-rule="evenodd" d="M8.267 4.8a.817.817 0 0 0-.787 1.042l.907 4.394h1.5a.9.9 0 0 1 .9.9c0 .667.545 1.212 1.212 1.212.667 0 1.212-.545 1.212-1.212a.9.9 0 0 1 .9-.9h1.488l.906-4.394a.816.816 0 0 0-.787-1.042H8.268Zm7.078 7.236h-.471a3.025 3.025 0 0 1-1.975 1.975v1.229h1.97l.476-3.204Zm-.743 5.004H12.9v2.904h1.272l.431-2.904Zm1.39 2.904.43-2.904h1.185l-.754 2.854-.002.006a.087.087 0 0 1-.024.044h-.836Zm2.091-4.704h-1.394l.476-3.204h1.765l-.847 3.204Zm-6.984 4.704V17.04H9.395l.431 2.904H11.1Zm-3.092 0-.432-2.904H6.391l.756 2.86a.087.087 0 0 0 .024.044h.836ZM5.915 15.24h1.393l-.475-3.204H5.068l.847 3.204Zm2.737-3.204.476 3.204h1.97v-1.23a3.025 3.025 0 0 1-1.974-1.974h-.472Zm-2.103-1.8L5.72 6.219A2.617 2.617 0 0 1 8.267 3h7.452a2.616 2.616 0 0 1 2.546 3.22l-.828 4.016h3.83l-2.673 10.115c-.202.778-.891 1.393-1.76 1.393H7.164c-.868 0-1.557-.615-1.759-1.392L2.73 10.236h3.819Z" clip-rule="evenodd"/></svg>
